# xmcd
#
# Track frame offsets:
#	150
#	13186
#	24360
#	37460
#	50667
#	66113
#	93429
#	111531
#	124859
#	137343
#	150961
#	161843
#	178379
#	192995
#	212452
#	229933
#	255860
#	269687
#
# Disc length: 3745 seconds
#
# Revision: 0
# Processed by: cddbd v1.5.1PL0 Copyright (c) Steve Scherf et al.
# Submitted via: dBpowerAMP V4.0
#
DISCID=050e9f12
DTITLE=Various Artist - Feel The Blues [3/4]
DYEAR=2002
DGENRE=Blues
TTITLE0=Elmore James - Dust My Broom
TTITLE1=John Lee Hooker - Boom Boom
TTITLE2=Tony Joe White - You Got Me Running
TTITLE3=Jimmy Witherspoon - Kansas City
TTITLE4=Big Joe Williams - Nobody Nows You When Your Down And Out
TTITLE5=Sonny Terry and Brownie McGhee - Walk On
TTITLE6=Muddy Waters - Got My Mojo Working
TTITLE7=Memphis Slim - Whiskey Store Blues
TTITLE8=T-Bone Walker - West Side Baby
TTITLE9=Canned Heat - Louise
TTITLE10=Dinah Washington - Good Daddy Blues
TTITLE11=Johnny Winter - Kind Hearted Woman
TTITLE12=Bessie Smith - Mean Old Bed Bug Blues
TTITLE13=Albert Collins - Too Manny Dirty Dishes
TTITLE14=Mike Bloomfield - Jockey Blues
TTITLE15=Roy Buchanan - Green Onions
TTITLE16=Jimmy Reed - You Don't Have To Go
TTITLE17=Lightning Slim - Bad Luck Blues
EXTD=
EXTT0=
EXTT1=
EXTT2=
EXTT3=
EXTT4=
EXTT5=
EXTT6=
EXTT7=
EXTT8=
EXTT9=
EXTT10=
EXTT11=
EXTT12=
EXTT13=
EXTT14=
EXTT15=
EXTT16=
EXTT17=
PLAYORDER=
